<svg width="40" height="40" viewBox="0 0 40 40" fill="none" xmlns="http://www.w3.org/2000/svg">
<g clip-path="url(#clip0_249_834)">
<path d="M3.33179 19.9907C3.33179 10.7904 10.7901 3.33203 19.9905 3.33203C29.1908 3.33203 36.6492 10.7904 36.6492 19.9907C36.6492 29.191 29.1908 36.6494 19.9905 36.6494C10.7901 36.6494 3.33179 29.191 3.33179 19.9907Z" fill="url(#paint0_linear_249_834)"/>
<path d="M16.1267 25.9149L8.93069 18.7188C8.18976 17.978 6.98851 17.978 6.24758 18.7188C5.50667 19.4597 5.50667 20.661 6.24758 21.4019L14.7852 29.9395C15.5261 30.6804 16.7274 30.6804 17.4683 29.9395L38.3379 9.06985C39.0788 8.32892 39.0788 7.12767 38.3379 6.38674C37.5971 5.64583 36.3957 5.64583 35.6548 6.38674L16.1267 25.9149Z" fill="white"/>
</g>
<defs>
<linearGradient id="paint0_linear_249_834" x1="19.9905" y1="3.33203" x2="19.9905" y2="36.6494" gradientUnits="userSpaceOnUse">
<stop stop-color="#FCC404"/>
<stop offset="1" stop-color="#00F3FF"/>
</linearGradient>
<clipPath id="clip0_249_834">
<rect width="39.9809" height="39.9809" fill="white"/>
</clipPath>
</defs>
</svg>
