<svg width="78" height="77" viewBox="0 0 78 77" fill="none" xmlns="http://www.w3.org/2000/svg">
<path d="M34.5039 9.65938C38.4795 9.65938 41.7026 12.8823 41.7026 16.8581V36.0546H60.8991C64.8747 36.0546 68.0978 39.2776 68.0978 43.2532V60.0502C68.0978 64.0258 64.8747 67.2489 60.8991 67.2489H17.707C13.7313 67.2489 10.5083 64.0258 10.5083 60.0502V16.8581C10.5083 12.8823 13.7313 9.65938 17.707 9.65938H34.5039ZM36.9035 40.8537H15.3074V60.0502C15.3074 61.3754 16.3818 62.4497 17.707 62.4497H36.9003L36.9035 40.8537ZM60.8991 40.8537H41.6994V62.4497H60.8991C62.2243 62.4497 63.2987 61.3754 63.2987 60.0502V43.2532C63.2987 41.928 62.2243 40.8537 60.8991 40.8537ZM34.5039 14.4585H17.707C16.3818 14.4585 15.3074 15.5328 15.3074 16.8581V36.0546H36.9035V16.8581C36.9035 15.5328 35.8291 14.4585 34.5039 14.4585ZM58.1738 6.48188L58.4995 6.45996C59.7144 6.45996 60.7183 7.36268 60.8773 8.53392L60.8991 8.85952V16.8581H68.8976C70.1125 16.8581 71.1164 17.7608 71.2754 18.932L71.2972 19.2576C71.2972 20.4724 70.3943 21.4764 69.2233 21.6353L68.8976 21.6572H60.8991V29.6557C60.8991 30.8705 59.9962 31.8745 58.8252 32.0334L58.4995 32.0553C57.2847 32.0553 56.2807 31.1526 56.1217 29.9813L56.1 29.6557V21.6572H48.1014C46.8866 21.6572 45.8826 20.7545 45.7236 19.5832L45.7019 19.2576C45.7019 18.0428 46.6047 17.0389 47.7757 16.88L48.1014 16.8581H56.1V8.85952C56.1 7.6447 57.0028 6.64076 58.1738 6.48188Z" fill="white"/>
</svg>
