<svg width="74" height="74" viewBox="0 0 74 74" fill="none" xmlns="http://www.w3.org/2000/svg">
<path d="M32.3109 24.952C27.2463 24.952 23.1406 29.0577 23.1406 34.1223C23.1406 39.1871 27.2463 43.2926 32.3109 43.2926C37.3756 43.2926 41.4812 39.1871 41.4812 34.1223C41.4812 29.0577 37.3756 24.952 32.3109 24.952ZM27.7257 34.1223C27.7257 31.5901 29.7786 29.5372 32.3109 29.5372C34.8431 29.5372 36.896 31.5901 36.896 34.1223C36.896 36.6546 34.8431 38.7075 32.3109 38.7075C29.7786 38.7075 27.7257 36.6546 27.7257 34.1223ZM6.32837 22.6595C6.32837 18.861 9.40763 15.7817 13.2061 15.7817H51.4157C55.214 15.7817 58.2934 18.861 58.2934 22.6595V34.6539C56.8216 34.3064 55.2865 34.1223 53.7083 34.1223V29.5372H51.4157C47.6173 29.5372 44.538 26.4579 44.538 22.6595V20.3669H20.0838V22.6595C20.0838 26.4579 17.0046 29.5372 13.2061 29.5372H10.9135V38.7075H13.2061C17.0046 38.7075 20.0838 41.7869 20.0838 45.5852V47.8778H34.7976C34.3253 49.3395 34.0181 50.8749 33.897 52.4629H13.2061C9.40763 52.4629 6.32837 49.3835 6.32837 45.5852V22.6595ZM13.6688 57.0481H34.0731C34.3198 58.6474 34.7575 60.1837 35.3622 61.6332H21.6123C18.218 61.6332 15.2544 59.7891 13.6688 57.0481ZM62.8786 36.3605C64.5628 37.2384 66.1059 38.3505 67.4637 39.6539V31.0656C67.4637 27.6713 65.6196 24.7077 62.8786 23.1222V36.3605ZM13.2061 20.3669C11.94 20.3669 10.9135 21.3933 10.9135 22.6595V24.952H13.2061C14.4722 24.952 15.4987 23.9256 15.4987 22.6595V20.3669H13.2061ZM53.7083 24.952V22.6595C53.7083 21.3933 52.6818 20.3669 51.4157 20.3669H49.1231V22.6595C49.1231 23.9256 50.1496 24.952 51.4157 24.952H53.7083ZM10.9135 45.5852C10.9135 46.8513 11.94 47.8778 13.2061 47.8778H15.4987V45.5852C15.4987 44.3191 14.4722 43.2926 13.2061 43.2926H10.9135V45.5852ZM43.86 43.2181C44.8222 46.5508 42.8219 50.0154 39.4546 50.8484L37.6688 51.2904C37.5315 52.1698 37.4603 53.0718 37.4603 53.9916C37.4603 54.9533 37.5383 55.8963 37.6884 56.8142L39.3372 57.2113C42.7378 58.0302 44.7596 61.5302 43.7695 64.8853L43.2 66.8148C44.5422 67.9938 46.0721 68.9508 47.7366 69.6319L49.2445 68.0463C51.655 65.5114 55.697 65.512 58.1063 68.0479L59.6307 69.6517C61.2924 68.9786 62.8208 68.0304 64.1636 66.8612L63.5581 64.7646C62.5961 61.4321 64.5965 57.9673 67.9635 57.1343L69.7477 56.6929C69.8853 55.8135 69.9565 54.9111 69.9565 53.9916C69.9565 53.0294 69.8782 52.086 69.7285 51.1681L68.0809 50.7713C64.6802 49.9524 62.6588 46.4524 63.6486 43.0976L64.2177 41.1691C62.8755 39.9901 61.3456 39.0327 59.6809 38.3514L58.1736 39.9366C55.763 42.4713 51.7214 42.4707 49.3117 39.9351L47.787 38.3306C46.1253 39.0037 44.5973 39.9519 43.2544 41.1205L43.86 43.2181ZM53.7083 58.5768C51.261 58.5768 49.2772 56.5238 49.2772 53.9916C49.2772 51.4591 51.261 49.4065 53.7083 49.4065C56.1558 49.4065 58.1396 51.4591 58.1396 53.9916C58.1396 56.5238 56.1558 58.5768 53.7083 58.5768Z" fill="white"/>
</svg>
