<svg width="70" height="67" viewBox="0 0 70 67" fill="none" xmlns="http://www.w3.org/2000/svg">
<path d="M9.26953 18.1158C9.26953 13.1778 13.4394 9.1748 18.5831 9.1748H51.5389C56.6826 9.1748 60.8525 13.1778 60.8525 18.1158V31.1835H56.5539V27.0569H43.6582V33.3368C43.6177 33.4081 43.5793 33.4807 43.5432 33.555L39.3596 42.1001V13.3014H18.5831C15.8134 13.3014 13.5681 15.4569 13.5681 18.1158V49.7534C13.5681 52.4123 15.8134 54.5678 18.5831 54.5678H36.1468C36.9177 55.3997 38.0425 55.9433 39.3521 55.9433H44.2892L43.575 58.6944H18.5831C13.4394 58.6944 9.26953 54.6913 9.26953 49.7534V18.1158ZM56.5539 22.9303V18.1158C56.5539 15.4569 54.3086 13.3014 51.5389 13.3014H43.6582V22.9303H56.5539ZM17.8667 38.749C17.8667 37.6095 18.829 36.6857 20.016 36.6857H32.9117C34.0987 36.6857 35.061 37.6095 35.061 38.749C35.061 39.8885 34.0987 40.8123 32.9117 40.8123H20.016C18.829 40.8123 17.8667 39.8885 17.8667 38.749ZM21.4488 18.8036C19.4705 18.8036 17.8667 20.3432 17.8667 22.2425V29.1202C17.8667 31.0196 19.4705 32.5591 21.4488 32.5591H31.4788C33.4573 32.5591 35.061 31.0196 35.061 29.1202V22.2425C35.061 20.3432 33.4573 18.8036 31.4788 18.8036H21.4488ZM22.1653 28.4324V22.9303H30.7624V28.4324H22.1653ZM17.8667 47.0023C17.8667 45.8628 18.829 44.939 20.016 44.939H32.9117C34.0987 44.939 35.061 45.8628 35.061 47.0023C35.061 48.1418 34.0987 49.0656 32.9117 49.0656H20.016C18.829 49.0656 17.8667 48.1418 17.8667 47.0023ZM47.4334 33.9346H61.268C62.3638 33.9346 63.0542 35.0675 62.5169 35.9845L57.2703 44.939H61.5577C63.4047 44.939 64.3916 47.0279 63.1746 48.3616L49.3506 63.5141C47.9049 65.099 45.2165 63.7495 45.747 61.7055L47.9567 53.1922H39.3521C38.3021 53.1922 37.6089 52.1438 38.0554 51.2315L46.1367 34.725C46.3728 34.2427 46.8784 33.9346 47.4334 33.9346Z" fill="white"/>
</svg>
