<svg width="54" height="54" viewBox="0 0 54 54" fill="none" xmlns="http://www.w3.org/2000/svg">
<g clip-path="url(#clip0_361_11)">
<path d="M21.6679 31.5721L15.3818 19.0443C15.0876 18.458 15.0383 17.7788 15.2449 17.1561C15.4515 16.5335 15.8969 16.0184 16.4833 15.7242C17.0696 15.43 17.7488 15.3807 18.3714 15.5873C18.9941 15.7939 19.5092 16.2393 19.8034 16.8257L25.3499 27.8796" stroke="black" stroke-opacity="0.25" stroke-width="3.298" stroke-linecap="round" stroke-linejoin="round"/>
<path d="M24.9803 27.1426L23.5012 24.1949C23.207 23.6086 23.1577 22.9294 23.3643 22.3067C23.5708 21.6841 24.0163 21.169 24.6026 20.8748C25.189 20.5806 25.8682 20.5314 26.4908 20.7379C27.1135 20.9445 27.6285 21.39 27.9227 21.9763L29.7716 25.6609" stroke="black" stroke-opacity="0.25" stroke-width="3.298" stroke-linecap="round" stroke-linejoin="round"/>
<path d="M28.6623 23.4501C28.3681 22.8637 28.3188 22.1845 28.5254 21.5619C28.732 20.9392 29.1774 20.4242 29.7638 20.1299C30.3501 19.8357 31.0293 19.7865 31.6519 19.9931C32.2746 20.1996 32.7897 20.6451 33.0839 21.2314L34.1932 23.4422" stroke="black" stroke-opacity="0.25" stroke-width="3.298" stroke-linecap="round" stroke-linejoin="round"/>
<path d="M33.8234 22.7053C33.5292 22.119 33.48 21.4398 33.6866 20.8172C33.8931 20.1945 34.3386 19.6794 34.9249 19.3852C35.5113 19.091 36.1905 19.0418 36.8131 19.2484C37.4357 19.4549 37.9508 19.9004 38.245 20.4867L41.573 27.1191C42.7498 29.4644 42.9468 32.1812 42.1205 34.6718C41.2942 37.1624 39.5124 39.2227 37.1671 40.3995L34.2193 41.8786L34.5259 41.7248C33.0615 42.4599 31.4375 42.8198 29.7996 42.7722C28.1618 42.7246 26.5614 42.2709 25.1421 41.452L24.6314 41.1548C23.8173 40.6795 20.7917 38.6757 15.5522 35.1426C15.0181 34.7825 14.6455 34.2282 14.5138 33.5976C14.3821 32.967 14.5016 32.3099 14.8468 31.7661C15.2144 31.1865 15.7652 30.7465 16.4115 30.5157C17.0579 30.285 17.7628 30.2769 18.4143 30.4926L21.668 31.572" stroke="black" stroke-opacity="0.25" stroke-width="3.298" stroke-linecap="round" stroke-linejoin="round"/>
<path d="M9.8511 19.0517L7.6377 18.3174" stroke="black" stroke-opacity="0.25" stroke-width="3.298" stroke-linecap="round" stroke-linejoin="round"/>
<path d="M11.3354 25.6867L9.86157 26.4263" stroke="black" stroke-opacity="0.25" stroke-width="3.298" stroke-linecap="round" stroke-linejoin="round"/>
<path d="M23.1158 12.3957L23.8501 10.1823" stroke="black" stroke-opacity="0.25" stroke-width="3.298" stroke-linecap="round" stroke-linejoin="round"/>
<path d="M26.8083 16.0781L28.2822 15.3386" stroke="black" stroke-opacity="0.25" stroke-width="3.298" stroke-linecap="round" stroke-linejoin="round"/>
</g>
<defs>
<clipPath id="clip0_361_11">
<rect width="39.5759" height="39.5759" fill="white" transform="translate(0.263184 18.3279) rotate(-26.6463)"/>
</clipPath>
</defs>
</svg>
