<svg width="136" height="137" viewBox="0 0 136 137" fill="none" xmlns="http://www.w3.org/2000/svg">
<path d="M17.3157 57.0702C17.3157 62.2632 18.3385 67.4053 20.3258 72.203C22.313 77.0007 25.2258 81.36 28.8978 85.032C32.5698 88.7039 36.9291 91.6167 41.7268 93.604C46.5244 95.5913 51.6666 96.6141 56.8595 96.6141C62.0525 96.6141 67.1946 95.5913 71.9923 93.604C76.79 91.6167 81.1493 88.7039 84.8213 85.032C88.4932 81.36 91.406 77.0007 93.3933 72.203C95.3806 67.4053 96.4034 62.2632 96.4034 57.0702C96.4034 51.8773 95.3806 46.7351 93.3933 41.9374C91.406 37.1398 88.4932 32.7805 84.8213 29.1085C81.1493 25.4365 76.79 22.5237 71.9923 20.5365C67.1946 18.5492 62.0525 17.5264 56.8595 17.5264C51.6666 17.5264 46.5244 18.5492 41.7268 20.5365C36.9291 22.5237 32.5698 25.4365 28.8978 29.1085C25.2258 32.7805 22.313 37.1398 20.3258 41.9374C18.3385 46.7351 17.3157 51.8773 17.3157 57.0702Z" stroke="white" stroke-width="11.2982" stroke-linecap="round" stroke-linejoin="round"/>
<path d="M119 119.21L85.1052 85.3157" stroke="white" stroke-width="11.2982" stroke-linecap="round" stroke-linejoin="round"/>
<path d="M56.8596 74.0178V74.0734" stroke="white" stroke-width="11.2982" stroke-linecap="round" stroke-linejoin="round"/>
<path d="M56.8594 57.0704C58.2813 57.0711 59.6806 56.714 60.9282 56.032C62.1759 55.35 63.2318 54.3649 63.9988 53.1676C64.7658 51.9704 65.2192 50.5993 65.3172 49.1808C65.4152 47.7623 65.1547 46.3419 64.5596 45.0505C63.9646 43.7591 63.0541 42.6382 61.9121 41.7911C60.7701 40.944 59.4333 40.3978 58.0248 40.203C56.6163 40.0081 55.1814 40.1709 53.8524 40.6762C52.5233 41.1815 51.3427 42.0131 50.4194 43.0945" stroke="white" stroke-width="11.2982" stroke-linecap="round" stroke-linejoin="round"/>
</svg>
