<svg width="54" height="54" viewBox="0 0 54 54" fill="none" xmlns="http://www.w3.org/2000/svg">
<path d="M42.4285 6.75H11.5714C8.9129 6.75 6.75 8.9129 6.75 11.5714V42.4285C6.75 45.0871 8.9129 47.25 11.5714 47.25H42.4285C45.0871 47.25 47.25 45.0871 47.25 42.4285V11.5714C47.25 8.9129 45.0871 6.75 42.4285 6.75ZM38.5771 24.4186C38.356 24.4402 38.1341 24.4514 37.9118 24.4523C36.7121 24.4525 35.5313 24.154 34.4761 23.5836C33.4206 23.0132 32.524 22.189 31.8668 21.1854V32.3102C31.8668 33.9365 31.3846 35.5264 30.481 36.8784C29.5776 38.2306 28.2933 39.2845 26.791 39.9069C25.2884 40.5293 23.6351 40.6922 22.0402 40.3749C20.4451 40.0574 18.9801 39.2744 17.8301 38.1245C16.6802 36.9745 15.8971 35.5095 15.5798 33.9145C15.2626 32.3195 15.4254 30.6662 16.0477 29.1638C16.6701 27.6613 17.7239 26.377 19.0761 25.4736C20.4283 24.57 22.0181 24.0878 23.6444 24.0878C23.816 24.0878 23.9837 24.1034 24.1524 24.1139V28.1657C23.9837 28.1455 23.8178 28.1147 23.6444 28.1147C22.5313 28.1147 21.4639 28.5568 20.6768 29.3438C19.8898 30.1309 19.4477 31.1983 19.4477 32.3114C19.4477 33.4242 19.8898 34.4918 20.6768 35.2787C21.4639 36.0657 22.5313 36.5078 23.6444 36.5078C25.9625 36.5078 28.0096 34.6815 28.0096 32.3633L28.0501 13.4692H31.9266C32.1037 15.1534 32.8671 16.7219 34.0837 17.9003C35.3 19.0786 36.8919 19.7919 38.581 19.9154V24.4186" fill="#58E0E7"/>
</svg>
