<svg width="47" height="47" viewBox="0 0 47 47" fill="none" xmlns="http://www.w3.org/2000/svg">
<path fill-rule="evenodd" clip-rule="evenodd" d="M34.5156 5.875H12.4844C8.83414 5.875 5.875 8.83414 5.875 12.4844V34.5156C5.875 38.1658 8.83414 41.125 12.4844 41.125H34.5156C38.1658 41.125 41.125 38.1658 41.125 34.5156V12.4844C41.125 8.83414 38.1658 5.875 34.5156 5.875ZM33.6205 24.8589H30.3226V37.0666H24.8127V24.8589H22.6744V20.745H24.8127V18.1244C24.8127 14.6921 26.2411 12.6513 30.2856 12.6513H34.3858V16.7468H32.0017C30.4249 16.7468 30.3226 17.3359 30.3226 18.4305L30.3181 20.7403H34.0658L33.6158 24.8544L33.6205 24.8589Z" fill="#58E0E7"/>
</svg>
