<svg width="46" height="46" viewBox="0 0 46 46" fill="none" xmlns="http://www.w3.org/2000/svg">
<path d="M31.625 4.3125H14.375C11.7071 4.31535 9.14936 5.37642 7.26289 7.26289C5.37642 9.14936 4.31535 11.7071 4.3125 14.375V31.625C4.31535 34.2929 5.37642 36.8506 7.26289 38.7371C9.14936 40.6236 11.7071 41.6846 14.375 41.6875H31.625C34.2929 41.6846 36.8506 40.6236 38.7371 38.7371C40.6236 36.8506 41.6846 34.2929 41.6875 31.625V14.375C41.6846 11.7071 40.6236 9.14936 38.7371 7.26289C36.8506 5.37642 34.2929 4.31535 31.625 4.3125ZM23 31.625C21.2941 31.625 19.6266 31.1192 18.2082 30.1714C16.7898 29.2237 15.6843 27.8767 15.0315 26.3006C14.3787 24.7246 14.2079 22.9904 14.5407 21.3173C14.8735 19.6443 15.695 18.1074 16.9012 16.9012C18.1074 15.695 19.6443 14.8735 21.3173 14.5407C22.9904 14.2079 24.7246 14.3787 26.3006 15.0315C27.8767 15.6843 29.2237 16.7898 30.1714 18.2082C31.1192 19.6266 31.625 21.2941 31.625 23C31.6226 25.2868 30.7132 27.4792 29.0962 29.0962C27.4792 30.7132 25.2868 31.6226 23 31.625ZM33.7812 14.375C33.3548 14.375 32.9379 14.2485 32.5833 14.0116C32.2287 13.7747 31.9523 13.4379 31.7891 13.0439C31.6259 12.6499 31.5832 12.2164 31.6664 11.7981C31.7496 11.3798 31.955 10.9956 32.2566 10.6941C32.5581 10.3925 32.9423 10.1871 33.3606 10.1039C33.7789 10.0207 34.2124 10.0634 34.6064 10.2266C35.0004 10.3898 35.3372 10.6662 35.5741 11.0208C35.811 11.3754 35.9375 11.7923 35.9375 12.2188C35.9375 12.7906 35.7103 13.3391 35.3059 13.7434C34.9016 14.1478 34.3531 14.375 33.7812 14.375ZM28.75 23C28.75 24.1372 28.4128 25.2489 27.781 26.1945C27.1491 27.1401 26.2511 27.8771 25.2004 28.3123C24.1498 28.7475 22.9936 28.8614 21.8782 28.6395C20.7628 28.4177 19.7383 27.87 18.9341 27.0659C18.13 26.2617 17.5823 25.2372 17.3605 24.1218C17.1386 23.0064 17.2525 21.8502 17.6877 20.7996C18.1229 19.7489 18.8599 18.8509 19.8055 18.2191C20.7511 17.5872 21.8628 17.25 23 17.25C24.525 17.25 25.9875 17.8558 27.0659 18.9341C28.1442 20.0125 28.75 21.475 28.75 23Z" fill="#58E0E7"/>
</svg>
